# xmcd
#
# Track frame offsets: 
#        150
#        15490
#        38683
#        55520
#
# Disc length: 1098 seconds
#
# Revision: 0
# Processed by: cddbd v1.5.1PL0 Copyright (c) Steve Scherf et al.
# Submitted via: ExactAudioCopy v0.95a5
#
DISCID=20044804
DTITLE=Various Artist - The LaFace Christmas Soulstorm Sampler
DYEAR=1994
DGENRE=Christmas/Holiday
TTITLE0=Toni Braxton - The Christmas Song
TTITLE1=A Few Good Men - Silver Bells
TTITLE2=TLC - Sleigh Ride
TTITLE3=A Few Good Men - Merry Christmas My Dear
EXTD=
EXTT0=
EXTT1=
EXTT2=
EXTT3=
PLAYORDER=
